PathFileType	4	(X/Y/Z)	_05Apr_ss_11ms_01.trc
DataRate	CameraRate	NumFrames	NumMarkers	Units	OrigDataRate	OrigDataStartFrame	OrigNumFrames
200.000000	200.000000	4	42	mm	200.000000	4180	6114
Frame#	Time	LASI			RASI			LPSI			RPSI			LTH1			LTH2			LTH3			LTH4			LMFC			LLFC			LTB1			LTB2			LTB3			LTB4			LMMAL			LLMAL			LCAL			LToe			LMT1			LMT5			RTH1			RTH2			RTH3			RTH4			RMFC			RLFC			RTB1			RTB2			RTB3			RTB4			RMMAL			RLMAL			RCAL			RToe			RMT1			RMT5			C7			T10			LACR1			RACR1			CLAV			RBack			
		X1	Y1	Z1	X2	Y2	Z2	X3	Y3	Z3	X4	Y4	Z4	X5	Y5	Z5	X6	Y6	Z6	X7	Y7	Z7	X8	Y8	Z8	X9	Y9	Z9	X10	Y10	Z10	X11	Y11	Z11	X12	Y12	Z12	X13	Y13	Z13	X14	Y14	Z14	X15	Y15	Z15	X16	Y16	Z16	X17	Y17	Z17	X18	Y18	Z18	X19	Y19	Z19	X20	Y20	Z20	X21	Y21	Z21	X22	Y22	Z22	X23	Y23	Z23	X24	Y24	Z24	X25	Y25	Z25	X26	Y26	Z26	X27	Y27	Z27	X28	Y28	Z28	X29	Y29	Z29	X30	Y30	Z30	X31	Y31	Z31	X32	Y32	Z32	X33	Y33	Z33	X34	Y34	Z34	X35	Y35	Z35	X36	Y36	Z36	X37	Y37	Z37	X38	Y38	Z38	X39	Y39	Z39	X40	Y40	Z40	X41	Y41	Z41	X42	Y42	Z42	

4180	20.89	328.82529	979.79474	-821.49689	575.48254	993.23035	-824.03973	414.04831	1009.77640	-646.57123	505.40311	1005.21580	-644.99384	288.41199	782.27301	-788.59033	333.74255	783.13885	-833.77844	314.71616	741.25842	-811.66901	309.44739	692.66876	-787.80090	440.21786	499.70169	-677.70660	323.43939	513.05475	-676.57874	309.61856	388.70013	-602.13007	317.01324	344.91589	-624.61584	336.85571	294.53580	-633.25854	320.91162	380.31473	-662.66412	461.09641	112.79128	-592.94977	376.45828	90.61637	-561.40222	433.51434	51.13395	-491.74661	423.98773	48.53371	-768.34241	456.73648	35.69338	-704.72839	344.64587	39.09367	-675.89227	646.67120	843.17871	-839.83197	658.75647	790.51471	-828.11041	652.06976	746.46594	-806.81293	656.20636	757.68298	-868.36578	504.58206	521.11615	-938.35663	628.28809	520.36743	-918.40887	611.68433	277.21460	-1003.34440	622.40570	261.10306	-939.82849	619.49072	231.22496	-979.22046	607.47485	187.79440	-1011.66410	526.87476	131.11682	-1030.44590	607.87720	104.97240	-997.35931	535.92371	46.12478	-956.25610	599.16248	129.73830	-1205.14500	554.82996	94.02827	-1161.99880	655.32501	79.29095	-1115.54020	448.45767	1487.08340	-709.23462	451.44525	1226.35030	-610.00916	276.96521	1452.98790	-770.19257	627.77771	1424.17260	-766.85785	454.41248	1389.84070	-836.69922	570.38751	1363.34230	-633.46759
4181	20.895	329.29538	979.04437	-821.88910	575.86603	992.05261	-824.17230	414.60117	1008.68050	-646.52661	505.89420	1003.97490	-645.07111	288.53665	781.46136	-787.50739	333.77682	782.15216	-832.55310	314.75775	740.13702	-810.18530	309.43793	691.67456	-786.03717	440.41837	499.46841	-674.85474	323.44122	512.87341	-673.72150	309.66870	388.85730	-598.32220	317.07037	344.98447	-620.56628	336.97070	294.55209	-628.93085	321.05084	380.23672	-659.05304	461.08640	112.96313	-587.66107	376.50409	90.90712	-555.93481	433.50159	51.42621	-486.21301	423.78680	48.31414	-763.32196	456.60190	35.64098	-699.20154	344.54126	39.04430	-670.29449	646.99762	840.99158	-838.83533	658.89587	788.38055	-826.61823	652.02893	744.65894	-804.97778	656.29456	754.91345	-866.46558	504.01431	519.80103	-936.67731	628.12665	519.05170	-917.91144	611.70551	277.83652	-1008.04220	622.31818	260.27133	-944.94714	619.30536	231.55965	-985.34271	607.39441	188.59344	-1018.42690	526.63184	132.37849	-1038.50490	607.92346	105.50826	-1005.93290	535.91638	45.56809	-965.70612	598.42810	134.52982	-1213.45090	554.12537	98.01686	-1171.00570	654.78436	82.13686	-1125.11430	448.82907	1485.90080	-709.25159	451.92233	1225.25650	-609.97327	277.27463	1451.84880	-770.19305	628.10114	1422.95740	-767.05396	454.73883	1388.63280	-836.77081	570.80560	1362.15730	-633.57050
4182	20.9	329.54471	977.77106	-821.49353	576.15985	990.74329	-824.22412	415.10260	1007.67090	-646.49933	506.41495	1002.86440	-645.03607	288.72284	780.49084	-786.15466	333.80322	780.81036	-831.48499	314.73862	739.06262	-808.65356	309.50085	690.86133	-784.51752	440.57700	498.95886	-672.18958	323.77234	512.53772	-670.93237	310.06039	389.20502	-595.12921	317.18765	345.07095	-616.73010	336.37918	294.66898	-624.72003	321.21677	380.08267	-655.36719	461.09433	113.09818	-582.34534	376.53696	91.23287	-550.44757	433.43637	51.74530	-480.71619	423.76135	48.32747	-757.84778	456.50070	35.59380	-693.64655	344.64078	38.97642	-664.60486	647.57648	838.91937	-837.99890	659.10150	786.21674	-825.13580	651.27368	742.66534	-803.18231	656.50500	752.43030	-864.66705	503.21268	518.71521	-935.11609	628.04749	517.87598	-917.59186	611.66052	278.50476	-1012.52570	622.22882	259.51196	-949.70264	619.34161	231.71375	-990.56744	607.21753	189.49983	-1024.78360	526.34808	133.61562	-1045.91530	607.75116	106.05492	-1014.14740	535.74390	45.19706	-975.04907	597.45422	139.28941	-1221.16990	553.36981	101.90520	-1179.26150	654.12585	85.01775	-1134.10930	449.17618	1484.76610	-709.34906	452.37354	1224.18980	-609.91113	277.63138	1450.62890	-770.18469	628.45544	1421.75490	-767.24799	455.03369	1387.45540	-836.78064	571.19965	1360.99830	-633.65576
4183	20.905	329.90305	976.78265	-821.44122	576.53735	989.50287	-824.30115	415.61627	1006.71100	-646.37982	506.96933	1001.60460	-645.06354	288.85226	779.64221	-784.93005	333.74011	779.64807	-830.51105	314.65970	738.14178	-807.48468	309.48016	689.91144	-782.91034	440.72119	498.42044	-669.79150	323.83325	512.17584	-668.19385	310.11743	389.34183	-591.64557	317.34860	345.13071	-612.91870	336.35864	294.57913	-620.56726	321.20761	379.79678	-651.78729	461.00250	113.23738	-577.13715	376.51929	91.63230	-544.98376	433.43274	52.03856	-475.23825	423.59714	47.94160	-752.44727	456.47754	35.61803	-688.13544	344.38812	38.97387	-659.14709	647.89526	836.71515	-837.14050	659.27472	784.09991	-823.79529	651.33844	740.75037	-801.46930	656.79999	750.03339	-862.95819	502.77722	517.50043	-933.91388	627.86267	516.91180	-917.49475	611.55646	279.12933	-1016.78440	621.66736	258.58304	-954.35712	619.23907	231.85147	-995.52551	607.03912	190.37057	-1030.66350	525.92822	134.94843	-1052.90500	607.38318	106.64742	-1021.82460	535.50122	45.04738	-983.84259	596.51648	143.87561	-1228.21070	552.48944	105.72346	-1186.99180	653.37500	87.77348	-1142.50490	449.61731	1483.54020	-709.44080	452.88269	1223.19870	-609.72974	278.01279	1449.41810	-770.20752	628.80286	1420.51060	-767.47662	455.31390	1386.12180	-836.81616	571.62933	1359.82690	-633.83252
